# xmcd
#
# Track frame offsets:
# 150
# 15568
# 34606
# 44693
# 59211
# 71433
# 86295
# 102176
# 118666
# 136424
# 152888
#
# Disc length: 2217 seconds
#
# Revision: 1
# Processed by: cddbd v1.5.2PL0 Copyright (c) Steve Scherf et al.
# Submitted via: CedeCatalogueitor 2.6.0.6 http://personales.ya.com/cdcatalogueitor
#
DISCID=9308a70b
DTITLE=Polen - Polen
DYEAR=1900
DGENRE=
TTITLE0=Tokio
TTITLE1=Solo Olas
TTITLE2=Tan Pronto
TTITLE3=Electro Shock
TTITLE4=La Radio
TTITLE5=Un Desierto
TTITLE6=Esos Dias
TTITLE7=Equilibrista
TTITLE8=Respirar
TTITLE9=Esta Noche
TTITLE10=Nunca Verá El Sol
EXTD=
EXTT0=
EXTT1=
EXTT2=
EXTT3=
EXTT4=
EXTT5=
EXTT6=
EXTT7=
EXTT8=
EXTT9=
EXTT10=
PLAYORDER=
